<svg width="488" height="152" viewBox="0 0 488 152" fill="none" xmlns="http://www.w3.org/2000/svg">
<path d="M76.6668 52.2124H60.5473C60.0873 52.2124 59.6972 52.3739 59.377 52.6933C59.0531 53.0164 58.8949 53.4056 58.8949 53.8609V118.373C58.8949 118.832 59.0531 119.221 59.377 119.54C59.6972 119.863 60.0873 120.021 60.5473 120.021H76.6668C77.1268 120.021 77.5169 119.863 77.8371 119.54C78.1573 119.221 78.3192 118.832 78.3192 118.373V53.8609C78.3192 53.4019 78.1573 53.0164 77.8371 52.6933C77.5132 52.3739 77.1231 52.2124 76.6668 52.2124Z" fill="#FF5722"/>
<path d="M43.0478 24.298C42.7276 23.9786 42.3375 23.817 41.8775 23.817H16.2151C15.7551 23.817 15.3687 23.9786 15.0448 24.298C14.7246 24.6211 14.5627 25.0103 14.5627 25.4655V41.5467C14.5627 42.0056 14.7246 42.3948 15.0448 42.7142C15.3687 43.0373 15.7588 43.1952 16.2151 43.1952H24.1019V100.643H16.2151C15.7551 100.643 15.3687 100.805 15.0448 101.124C14.7246 101.447 14.5627 101.836 14.5627 102.292V118.373C14.5627 118.832 14.7246 119.221 15.0448 119.54C15.3687 119.863 15.7588 120.021 16.2151 120.021H41.8738C42.3338 120.021 42.7239 119.863 43.0441 119.54C43.368 119.221 43.5262 118.832 43.5262 118.373V25.4655C43.5262 25.4655 43.5262 25.4545 43.5262 25.4472C43.5225 24.9992 43.3643 24.6137 43.0441 24.298H43.0478Z" fill="#FF5722"/>
<path d="M120.995 43.1952C121.455 43.1952 121.845 43.0373 122.166 42.7142C122.489 42.3948 122.648 42.0056 122.648 41.5467V25.4655C122.648 25.0066 122.489 24.6174 122.166 24.298C121.845 23.9786 121.455 23.817 120.995 23.817H95.3366C94.8766 23.817 94.4865 23.9786 94.1663 24.298C93.8425 24.6211 93.6842 25.0103 93.6842 25.4655V118.373C93.6842 118.832 93.8425 119.221 94.1663 119.54C94.4865 119.863 94.8766 120.021 95.3366 120.021H120.995C121.455 120.021 121.845 119.863 122.166 119.54C122.489 119.221 122.648 118.832 122.648 118.373V102.292C122.648 101.833 122.489 101.443 122.166 101.124C121.845 100.805 121.455 100.643 120.995 100.643H113.109V43.1952H120.995Z" fill="#FF5722"/>
<path d="M76.7183 23.817H60.5473C60.0873 23.817 59.7009 23.9786 59.377 24.298C59.0568 24.6211 58.8949 25.0103 58.8949 25.4655V41.5467C58.8949 42.0056 59.0568 42.3948 59.377 42.7142C59.6972 43.0336 60.091 43.1952 60.5473 43.1952H76.7183C77.1783 43.1952 77.5684 43.0373 77.8886 42.7142C78.2125 42.3948 78.3707 42.0056 78.3707 41.5467V25.4655C78.3707 25.0066 78.2125 24.6174 77.8886 24.298C77.5684 23.9786 77.1783 23.817 76.7183 23.817Z" fill="#FF5722"/>
<path d="M156.524 49.9911V37.8642H173.38V49.9911H156.524ZM156.524 55.9646H173.38V104.204H156.524V55.9646Z" fill="#FF9800"/>
<path d="M183.42 71.1243C183.42 61.1084 183.328 58.1675 183.236 55.9646H199.723C199.907 56.8825 200.091 59.6398 200.183 61.3875C202.211 58.0794 206.631 54.955 213.355 54.955C223.302 54.955 228.274 61.6628 228.274 72.1376V104.204H211.419V74.9867C211.419 70.3936 210.407 67.6363 206.167 67.6363C202.299 67.6363 200.271 69.7511 200.271 76.4553V104.204H183.416V71.1279L183.42 71.1243Z" fill="#FF9800"/>
<path d="M239.782 104.201V67.8162H233.887V55.9646H239.782V53.1156C239.782 42.6408 244.846 37.2216 255.898 37.2216C259.03 37.2216 261.518 37.6806 262.806 38.0477V49.2568C261.978 49.165 260.966 49.0732 260.134 49.0732C257.37 49.0732 256.634 50.7254 256.634 53.2073V55.9646H263.634V67.8162H256.634V104.201H239.779H239.782Z" fill="#FF9800"/>
<path d="M269.53 49.9911V37.8642H286.385V49.9911H269.53ZM269.53 55.9646H286.385V104.204H269.53V55.9646Z" fill="#FF9800"/>
<path d="M296.425 71.1243C296.425 61.1084 296.333 58.1675 296.241 55.9646H312.729C312.913 56.8825 313.097 59.6398 313.189 61.3875C315.216 58.0794 319.636 54.955 326.36 54.955C336.308 54.955 341.28 61.6628 341.28 72.1376V104.204H324.424V74.9867C324.424 70.3936 323.412 67.6363 319.176 67.6363C315.308 67.6363 313.281 69.7511 313.281 76.4553V104.204H296.425V71.1279V71.1243Z" fill="#FF9800"/>
<path d="M351.316 49.9911V37.8642H368.171V49.9911H351.316ZM351.316 55.9646H368.171V104.204H351.316V55.9646Z" fill="#FF9800"/>
<path d="M421.678 86.6547C420.39 97.1295 414.035 105.122 399.023 105.122C382.167 105.122 375.904 95.0147 375.904 80.314C375.904 63.9575 385.207 54.955 399.851 54.955C417.442 54.955 421.494 66.7148 421.678 73.7898H405.283C405.099 69.6557 403.811 66.2559 399.755 66.2559C395.059 66.2559 393.215 70.4818 393.215 79.8551C393.215 90.4217 395.427 94.005 399.571 94.005C403.715 94.005 404.727 90.7888 405.467 86.6547H421.678Z" fill="#FF9800"/>
<path d="M442.31 55.9646C446.086 71.5832 448.666 84.081 449.31 90.4216H449.678C450.782 83.7138 454.098 68.0953 456.769 55.9646H473.441L458.981 102.457C453.546 119.823 448.482 122.58 436.97 122.58C435.13 122.58 432.182 122.305 430.154 122.03V109.715C431.534 109.899 433.378 109.991 434.298 109.991C437.706 109.991 439.638 108.43 440.47 105.765L424.262 55.9646H442.313H442.31Z" fill="#FF9800"/>
</svg>
