<svg xmlns="http://www.w3.org/2000/svg" version="1.1" xmlns:xlink="http://www.w3.org/1999/xlink" xmlns:svgjs="http://svgjs.dev/svgjs" width="1000" height="1000"><g clip-path="url(#SvgjsClipPath1047)"><rect width="1000" height="1000" fill="#ffffff"></rect><g transform="matrix(1.6548463356973995,0,0,1.6548463356973995,150,157.44680851063833)"><svg xmlns="http://www.w3.org/2000/svg" version="1.1" xmlns:xlink="http://www.w3.org/1999/xlink" xmlns:svgjs="http://svgjs.dev/svgjs" width="423" height="414"><svg id="Layer_1" data-name="Layer 1" xmlns="http://www.w3.org/2000/svg" viewBox="0 0 423 414">
  <defs>
    <style>
      .cls-1 {
        fill: #ff5722;
      }
    </style>
  <clipPath id="SvgjsClipPath1047"><rect width="1000" height="1000" x="0" y="0" rx="350" ry="350"></rect></clipPath></defs>
  <path class="cls-1" d="M233.4,153.32h-43.8c-1.25,0-2.31.44-3.18,1.31-.88.88-1.31,1.94-1.31,3.18v175.71c0,1.25.43,2.31,1.31,3.18.87.88,1.93,1.31,3.18,1.31h43.8c1.25,0,2.31-.43,3.18-1.31.87-.87,1.31-1.93,1.31-3.18v-175.71c0-1.25-.44-2.3-1.31-3.18-.88-.87-1.94-1.31-3.18-1.31Z"></path>
  <path class="cls-1" d="M142.05,77.29c-.87-.87-1.93-1.31-3.18-1.31h-69.72c-1.25,0-2.3.44-3.18,1.31-.87.88-1.31,1.94-1.31,3.18v43.8c0,1.25.44,2.31,1.31,3.18.88.88,1.94,1.31,3.18,1.31h21.43v156.47h-21.43c-1.25,0-2.3.44-3.18,1.31-.87.88-1.31,1.94-1.31,3.18v43.8c0,1.25.44,2.31,1.31,3.18.88.88,1.94,1.31,3.18,1.31h69.72c1.25,0,2.31-.43,3.18-1.31.88-.87,1.31-1.93,1.31-3.18V80.47h0s0-.03,0-.05c-.01-1.22-.44-2.27-1.31-3.13Z"></path>
  <path class="cls-1" d="M353.85,128.76c1.25,0,2.31-.43,3.18-1.31.88-.87,1.31-1.93,1.31-3.18v-43.8c0-1.25-.43-2.31-1.31-3.18-.87-.87-1.93-1.31-3.18-1.31h-69.72c-1.25,0-2.31.44-3.18,1.31-.88.88-1.31,1.94-1.31,3.18h0v253.05c0,1.25.43,2.31,1.31,3.18.87.88,1.93,1.31,3.18,1.31h69.72c1.25,0,2.31-.43,3.18-1.31.88-.87,1.31-1.93,1.31-3.18v-43.8c0-1.25-.43-2.31-1.31-3.18-.87-.87-1.93-1.31-3.18-1.31h-21.43v-156.47h21.43Z"></path>
  <path class="cls-1" d="M233.54,75.98h-43.94c-1.25,0-2.3.44-3.18,1.31-.87.88-1.31,1.94-1.31,3.18v43.8c0,1.25.44,2.31,1.31,3.18s1.94,1.31,3.18,1.31h43.94c1.25,0,2.31-.43,3.18-1.31.88-.87,1.31-1.93,1.31-3.18v-43.8c0-1.25-.43-2.31-1.31-3.18-.87-.87-1.93-1.31-3.18-1.31Z"></path>
</svg></svg></g></g></svg>